<?xml version="1.0" encoding="utf-8"?>
<!-- Generator: Adobe Illustrator 23.0.3, SVG Export Plug-In . SVG Version: 6.00 Build 0)  -->
<svg version="1.1" id="Layer_1" xmlns="http://www.w3.org/2000/svg" xmlns:xlink="http://www.w3.org/1999/xlink" x="0px" y="0px"
	 viewBox="0 0 2048 2048" style="enable-background:new 0 0 2048 2048;" xml:space="preserve">
<style type="text/css">
	.st0{fill:#D792FD;}
	.st1{fill:#8FD7FD;}
	.st2{fill:#68D7CD;}
	.st3{fill:#F0BA65;}
	.st4{fill:#FE9AB4;}
	.st5{fill:#BF4BFF;}
	.st6{fill:#48BDFE;}
	.st7{fill:#06C0AF;}
	.st8{fill:#E98F00;}
	.st9{fill:#FF5885;}
	.st10{fill:url(#SVGID_1_);}
	.st11{fill:url(#SVGID_2_);}
	.st12{fill:url(#SVGID_3_);}
	.st13{fill:url(#SVGID_4_);}
	.st14{fill:url(#SVGID_5_);}
	.st15{fill:url(#SVGID_6_);}
	.st16{fill:url(#SVGID_7_);}
	.st17{fill:url(#SVGID_8_);}
	.st18{fill:#4D4D4D;}
	.st19{fill:#FFFFFF;}
</style>
<path class="st0" d="M1021,1024h147V877h-147V1024z"/>
<path class="st1" d="M1168,1024h147V877h-147V1024z"/>
<path class="st2" d="M1314,1024h147V877h-147V1024z"/>
<path class="st3" d="M1461,1024h147V877h-147V1024z"/>
<path class="st4" d="M1608,1024h147V877h-147V1024z"/>
<path class="st5" d="M1021,1171h147v-147h-147V1171z"/>
<path class="st6" d="M1168,1171h147v-147h-147V1171z"/>
<path class="st7" d="M1314,1171h147v-147h-147V1171z"/>
<path class="st8" d="M1461,1171h147v-147h-147V1171z"/>
<path class="st9" d="M1608,1171h147v-147h-147V1171z"/>
<path class="st6" d="M1024,2048h1026v-727H1024V2048z"/>
<g>
	<linearGradient id="SVGID_1_" gradientUnits="userSpaceOnUse" x1="320.9115" y1="107.7329" x2="320.9115" y2="543.907">
		<stop  offset="0" style="stop-color:#8FD7FD"/>
		<stop  offset="1" style="stop-color:#48BDFE"/>
	</linearGradient>
	<path class="st10" d="M409.9,107.7C308.5,128,231.8,218.3,231.8,326.1c0,100.6,66.8,185.9,158.2,213.3c4.8,1.6,9.7,2.9,14.8,3.9
		l5.2,0.6"/>
	<linearGradient id="SVGID_2_" gradientUnits="userSpaceOnUse" x1="499.071" y1="198.068" x2="499.071" y2="712.918">
		<stop  offset="0" style="stop-color:#D792FD"/>
		<stop  offset="1" style="stop-color:#BF4BFF"/>
	</linearGradient>
	<path class="st11" d="M409.9,634.7l97.8,78.3l69.7-61.7l-75.1-59c52.2-40.8,85.9-104.5,85.9-175.9c0-103.8-71-191.2-166.9-215.8
		c-3.6-1.1-8.6-1.8-11.4-2.6"/>
	<linearGradient id="SVGID_3_" gradientUnits="userSpaceOnUse" x1="469.104" y1="566.1786" x2="486.0816" y2="536.7724">
		<stop  offset="0" style="stop-color:#A632E6"/>
		<stop  offset="0.4303" style="stop-color:#B658F4;stop-opacity:0.3654"/>
		<stop  offset="0.678" style="stop-color:#BD69FA;stop-opacity:0"/>
	</linearGradient>
	<path class="st12" d="M449,522.3c-5.8,4.6-12,8.8-18.6,12.4l71.9,57.6c6-4.7,11.7-9.7,17.2-15L449,522.3z"/>
	<linearGradient id="SVGID_4_" gradientUnits="userSpaceOnUse" x1="410.0454" y1="198.068" x2="410.0454" y2="543.8984">
		<stop  offset="0" style="stop-color:#AC83FF"/>
		<stop  offset="1" style="stop-color:#7849D8"/>
	</linearGradient>
	<path class="st13" d="M409.9,198.1c-31.9,11.3-58.1,34.1-73.7,63.5c-10,18.8-15.6,40.1-15.6,62.8c0,11,1.3,21.6,3.7,31.7
		c10.6,44.2,43,79.5,85.5,94.5v93.2c52.3-18.3,89.5-68.2,89.5-126.3c0-58.6-37.1-107.8-89.5-126.3"/>
</g>
<g>
	<linearGradient id="SVGID_5_" gradientUnits="userSpaceOnUse" x1="370.749" y1="932.0783" x2="370.749" y2="1223.9619">
		<stop  offset="0" style="stop-color:#8FD7FD"/>
		<stop  offset="1" style="stop-color:#48BDFE"/>
	</linearGradient>
	<path class="st14" d="M430.3,932.1c-67.9,13.6-119.2,74-119.2,146.1c0,67.3,44.7,124.4,105.9,142.8c3.2,1.1,6.5,1.9,9.9,2.6
		l3.5,0.4"/>
	<linearGradient id="SVGID_6_" gradientUnits="userSpaceOnUse" x1="489.9717" y1="992.5297" x2="489.9717" y2="1337.0625">
		<stop  offset="0" style="stop-color:#D792FD"/>
		<stop  offset="1" style="stop-color:#BF4BFF"/>
	</linearGradient>
	<path class="st15" d="M430.3,1284.7l65.4,52.4l46.6-41.3l-50.3-39.5c35-27.3,57.5-69.9,57.5-117.7c0-69.4-47.5-128-111.7-144.4
		c-2.4-0.7-5.8-1.2-7.6-1.7"/>
	<linearGradient id="SVGID_7_" gradientUnits="userSpaceOnUse" x1="469.918" y1="1238.8658" x2="481.2793" y2="1219.1875">
		<stop  offset="0" style="stop-color:#A632E6"/>
		<stop  offset="0.4303" style="stop-color:#B658F4;stop-opacity:0.3654"/>
		<stop  offset="0.678" style="stop-color:#BD69FA;stop-opacity:0"/>
	</linearGradient>
	<path class="st16" d="M456.4,1209.5c-3.9,3.1-8.1,5.9-12.4,8.3l48.1,38.5c4-3.1,7.9-6.5,11.5-10L456.4,1209.5z"/>
	<linearGradient id="SVGID_8_" gradientUnits="userSpaceOnUse" x1="430.3966" y1="992.5297" x2="430.3966" y2="1223.9562">
		<stop  offset="0" style="stop-color:#AC83FF"/>
		<stop  offset="1" style="stop-color:#7849D8"/>
	</linearGradient>
	<path class="st17" d="M430.3,992.5c-21.4,7.6-38.9,22.9-49.3,42.5c-6.7,12.5-10.4,26.9-10.4,42c0,7.3,0.9,14.4,2.5,21.2
		c7.1,29.6,28.8,53.2,57.2,63.3v62.4c35-12.2,59.9-45.6,59.9-84.5c0-39.2-24.9-72.1-59.9-84.5"/>
</g>
<g>
	<path class="st18" d="M1126.4,506l-12.4,35h-50.7l92.8-248h47.4l92.3,248h-50.4l-65.6-185.1L1141.4,464h36.6l14.9,42H1126.4
		L1126.4,506z"/>
	<path class="st18" d="M1084.6,334l-14.8-41H900.3l0,0l15.3,41H964v208h51V334H1084.6L1084.6,334z"/>
	<path class="st18" d="M1466.9,334l-14.8-41h-172.6l15.3,41h49.2v208h51V334H1466.9z"/>
	<path class="st18" d="M1801,412c0-24.3-4.4-45.7-13.2-64.2c-8.8-18.5-21.2-32.8-37.3-42.7c-16.1-9.9-34.4-14.9-55-14.9
		c-20.6,0-39,5-55,14.9c-16.1,9.9-28.5,24.2-37.3,42.7c-8.8,18.5-13.2,40-13.2,64.4v12.3c0.1,23.8,4.6,44.9,13.4,63.2
		c8.8,18.3,21.3,32.4,37.4,42.3c16.1,9.9,34.4,14.8,55,14.8c6.5,0,12.7-0.5,18.7-1.5l52.8,42.4l32.5-28.8l-41.2-32.3
		c13.3-10.3,23.7-24,31.1-41.1c7.5-17.1,11.2-37.2,11.2-60.3V412z M1750,423.9c-0.1,25.9-4.8,45.5-14,59
		c-9.2,13.5-22.4,20.2-39.6,20.2c-17.5,0-31-7-40.3-21c-9.3-14-14-33.7-14-59.1v-12.1c0.1-25.9,4.8-45.5,14.2-58.9
		c9.3-13.4,22.6-20.1,39.8-20.1c17.3,0,30.6,6.8,40,20.3c9.3,13.6,14,33.4,14,59.5V423.9z"/>
	<path class="st18" d="M1554,293h-51v248h51V293z"/>
	<path class="st18" d="M819.8,477c0,8.9-3.4,15.8-10.2,20.7c-6.8,5-16.3,7.4-28.5,7.4c-32.8,0-49.2-13.7-49.2-41.2h-51.4
		c0,16.1,4.1,30.2,12.4,42.4c8.3,12.2,20.2,21.8,35.9,28.8c15.7,7,33.1,10.5,52.3,10.5c27.6,0,49.5-6.1,65.7-18.4
		c16.3-12.2,24.4-29.1,24.4-50.6c0-19.4-6.7-35.5-20-48.5c-13.3-13-34.6-23.9-63.7-32.6c-15.8-4.8-27.8-9.9-35.9-15.4
		c-8.1-5.5-12.2-12.2-12.2-20.3c0-8.7,3.5-15.6,10.4-20.9c6.9-5.3,16.7-7.9,29.2-7.9c13,0,23.1,3.2,30.2,9.5
		c7.2,6.3,10.8,15.2,10.8,26.6h51.2c0-14.9-3.8-28.2-11.5-40c-7.7-11.7-18.5-20.8-32.4-27.2c-13.9-6.4-29.7-9.6-47.5-9.6
		c-17.6,0-33.6,3-47.7,8.9c-14.2,5.9-25,14.1-32.6,24.7c-7.6,10.5-11.4,22.5-11.4,35.9c0,25.8,14.1,46.4,42.4,61.7
		c10.4,5.6,24.4,11.2,42.2,17c17.8,5.8,30.1,11.2,36.9,16.4C816.4,459.9,819.8,467.3,819.8,477z"/>
</g>
<g>
	<path class="st18" d="M286.9,1687.8c0-56.4-38.6-103.9-90.7-117.2c-2-0.6-4.7-1-6.2-1.4l0-49.1c-55.1,11-96.8,60.1-96.8,118.7
		c0,54.7,36.3,101,86,115.9c2.6,0.9,5.3,1.6,8,2.1l2.8,0.3v-50.7c-23.1-8.2-40.7-27.4-46.5-51.4c-1.3-5.5-2-11.3-2-17.2
		c0-12.3,3.1-24,8.5-34.1c8.5-15.9,22.7-28.4,40-34.5v50.7c28.4,10.1,48.6,36.8,48.6,68.6c0,31.6-20.2,58.7-48.6,68.7v49.3
		l53.1,42.5l37.9-33.5l-40.8-32C268.6,1761.2,286.9,1726.6,286.9,1687.8z"/>
	<path class="st18" d="M579.3,1736.5l-6.8,19H545l50.4-134.8h25.7l50.2,134.8H644l-35.7-100.6l-20.9,58.8h19.9l8.1,22.8H579.3
		L579.3,1736.5z"/>
	<path class="st18" d="M556.6,1643l-8-22.3h-92.1l0,0l8.3,22.3h26.3v113h27.7v-113H556.6L556.6,1643z"/>
	<path class="st18" d="M764.4,1643l-8-22.3h-93.8l8.3,22.3h26.7v113h27.7v-113H764.4z"/>
	<path class="st18" d="M945.9,1685.4c0-13.2-2.4-24.8-7.2-34.9c-4.8-10.1-11.5-17.8-20.3-23.2c-8.7-5.4-18.7-8.1-29.9-8.1
		c-11.2,0-21.2,2.7-29.9,8.1c-8.7,5.4-15.5,13.1-20.3,23.2c-4.8,10.1-7.2,21.7-7.2,35v6.7c0.1,12.9,2.5,24.4,7.3,34.4
		c4.8,10,11.6,17.6,20.3,23s18.7,8,29.9,8c3.5,0,6.9-0.3,10.2-0.8l28.7,23l17.7-15.6l-22.4-17.6c7.2-5.6,12.9-13.1,16.9-22.3
		c4.1-9.3,6.1-20.2,6.1-32.8V1685.4z M918.2,1691.9c-0.1,14.1-2.6,24.7-7.6,32.1c-5,7.3-12.2,11-21.5,11c-9.5,0-16.8-3.8-21.9-11.4
		c-5.1-7.6-7.6-18.3-7.6-32.1v-6.6c0.1-14.1,2.6-24.7,7.7-32c5.1-7.3,12.3-10.9,21.6-10.9c9.4,0,16.7,3.7,21.7,11.1
		c5.1,7.4,7.6,18.1,7.6,32.3V1691.9z"/>
	<path class="st18" d="M811.7,1620.7H784v134.8h27.7V1620.7z"/>
	<path class="st18" d="M412.7,1720.7c0,4.8-1.9,8.6-5.6,11.3c-3.7,2.7-8.9,4-15.5,4c-17.8,0-26.7-7.5-26.7-22.4H337
		c0,8.7,2.2,16.4,6.7,23c4.5,6.6,11,11.8,19.5,15.6c8.5,3.8,18,5.7,28.4,5.7c15,0,26.9-3.3,35.7-10c8.8-6.7,13.3-15.8,13.3-27.5
		c0-10.5-3.6-19.3-10.9-26.4c-7.2-7.1-18.8-13-34.6-17.7c-8.6-2.6-15.1-5.4-19.5-8.4c-4.4-3-6.6-6.7-6.6-11c0-4.7,1.9-8.5,5.7-11.4
		c3.8-2.9,9.1-4.3,15.9-4.3c7.1,0,12.5,1.7,16.4,5.2c3.9,3.4,5.8,8.2,5.8,14.4h27.8c0-8.1-2.1-15.3-6.3-21.7
		c-4.2-6.4-10-11.3-17.6-14.8c-7.5-3.5-16.1-5.2-25.8-5.2c-9.6,0-18.2,1.6-25.9,4.8c-7.7,3.2-13.6,7.7-17.7,13.4
		c-4.1,5.7-6.2,12.2-6.2,19.5c0,14,7.7,25.2,23,33.5c5.6,3,13.3,6.1,22.9,9.2c9.7,3.1,16.3,6.1,20,8.9
		C410.9,1711.4,412.7,1715.5,412.7,1720.7z"/>
</g>
<g>
	<path class="st19" d="M1321.3,1687.8c0-56.4-38.6-103.9-90.7-117.2c-2-0.6-4.7-1-6.2-1.4l0-49.1c-55.1,11-96.8,60.1-96.8,118.7
		c0,54.7,36.3,101,86,115.9c2.6,0.9,5.3,1.6,8,2.1l2.8,0.3v-50.7c-23.1-8.2-40.7-27.4-46.5-51.4c-1.3-5.5-2-11.3-2-17.2
		c0-12.3,3.1-24,8.5-34.1c8.5-15.9,22.7-28.4,40-34.5v50.7c28.4,10.1,48.6,36.8,48.6,68.6c0,31.6-20.2,58.7-48.6,68.7v49.3
		l53.1,42.5l37.9-33.5l-40.8-32C1303,1761.2,1321.3,1726.6,1321.3,1687.8z"/>
	<path class="st19" d="M1613.8,1736.5l-6.8,19h-27.5l50.4-134.8h25.7l50.2,134.8h-27.4l-35.7-100.6l-20.9,58.8h19.9l8.1,22.8H1613.8
		L1613.8,1736.5z"/>
	<path class="st19" d="M1591,1643l-8-22.3h-92.1l0,0l8.3,22.3h26.3v113h27.7v-113H1591L1591,1643z"/>
	<path class="st19" d="M1798.8,1643l-8-22.3h-93.8l8.3,22.3h26.7v113h27.7v-113H1798.8z"/>
	<path class="st19" d="M1980.4,1685.4c0-13.2-2.4-24.8-7.2-34.9s-11.5-17.8-20.3-23.2c-8.7-5.4-18.7-8.1-29.9-8.1
		c-11.2,0-21.2,2.7-29.9,8.1c-8.7,5.4-15.5,13.1-20.3,23.2c-4.8,10.1-7.2,21.7-7.2,35v6.7c0.1,12.9,2.5,24.4,7.3,34.4
		c4.8,10,11.6,17.6,20.3,23c8.8,5.4,18.7,8,29.9,8c3.5,0,6.9-0.3,10.2-0.8l28.7,23l17.7-15.6l-22.4-17.6
		c7.2-5.6,12.9-13.1,16.9-22.3s6.1-20.2,6.1-32.8V1685.4z M1952.7,1691.9c-0.1,14.1-2.6,24.7-7.6,32.1c-5,7.3-12.2,11-21.5,11
		c-9.5,0-16.8-3.8-21.9-11.4c-5.1-7.6-7.6-18.3-7.6-32.1v-6.6c0.1-14.1,2.6-24.7,7.7-32c5.1-7.3,12.3-10.9,21.6-10.9
		c9.4,0,16.7,3.7,21.7,11.1c5.1,7.4,7.6,18.1,7.6,32.3V1691.9z"/>
	<path class="st19" d="M1846.1,1620.7h-27.7v134.8h27.7V1620.7z"/>
	<path class="st19" d="M1447.2,1720.7c0,4.8-1.9,8.6-5.6,11.3c-3.7,2.7-8.9,4-15.5,4c-17.8,0-26.7-7.5-26.7-22.4h-27.9
		c0,8.7,2.2,16.4,6.7,23c4.5,6.6,11,11.8,19.5,15.6c8.5,3.8,18,5.7,28.4,5.7c15,0,26.9-3.3,35.7-10c8.8-6.7,13.3-15.8,13.3-27.5
		c0-10.5-3.6-19.3-10.9-26.4c-7.2-7.1-18.8-13-34.6-17.7c-8.6-2.6-15.1-5.4-19.5-8.4c-4.4-3-6.6-6.7-6.6-11c0-4.7,1.9-8.5,5.7-11.4
		c3.8-2.9,9.1-4.3,15.9-4.3c7.1,0,12.5,1.7,16.4,5.2c3.9,3.4,5.8,8.2,5.8,14.4h27.8c0-8.1-2.1-15.3-6.3-21.7
		c-4.2-6.4-10-11.3-17.6-14.8c-7.5-3.5-16.1-5.2-25.8-5.2c-9.6,0-18.2,1.6-25.9,4.8c-7.7,3.2-13.6,7.7-17.7,13.4
		c-4.1,5.7-6.2,12.2-6.2,19.5c0,14,7.7,25.2,23,33.5c5.6,3,13.3,6.1,22.9,9.2c9.7,3.1,16.3,6.1,20,8.9
		C1445.3,1711.4,1447.2,1715.5,1447.2,1720.7z"/>
</g>
</svg>
